ffmpeg version 4.4.2-1ubuntu0.1 Copyright (c) 2000-2021 the FFmpeg developers
  built with gcc 11 (Ubuntu 11.4.0-1ubuntu1~22.04)
  configuration: --prefix=/usr --enable-nvv4l2dec --enable-libv4l2 --enable-shared --extra-libs='-L/usr/lib/aarch64-linux-gnu/tegra -lv4l2 -lnvbufsurface -lnvbufsurftransform' --extra-cflags=-I/usr/src/jetson_multimedia_api/include/ --extra-version=1ubuntu0.1 --toolchain=hardened --libdir=/usr/lib/aarch64-linux-gnu --incdir=/usr/include/aarch64-linux-gnu --arch=arm64 --enable-gpl --disable-stripping --enable-gnutls --enable-ladspa --enable-libaom --enable-libass --enable-libbluray --enable-libbs2b --enable-libcaca --enable-libcdio --enable-libcodec2 --enable-libdav1d --enable-libflite --enable-libfontconfig --enable-libfreetype --enable-libfribidi --enable-libgme --enable-libgsm --enable-libjack --enable-libmp3lame --enable-libmysofa --enable-libopenjpeg --enable-libopenmpt --enable-libopus --enable-libpulse --enable-librabbitmq --enable-librubberband --enable-libshine --enable-libsnappy --enable-libsoxr --enable-libspeex --enable-libsrt --enable-libssh --enable-libtheora --enable-libtwolame --enable-libvidstab --enable-libvorbis --enable-libvpx --enable-libwebp --enable-libx265 --enable-libxml2 --enable-libxvid --enable-libzimg --enable-libzmq --enable-libzvbi --enable-lv2 --enable-omx --enable-openal --enable-opencl --enable-opengl --enable-sdl2 --enable-pocketsphinx --enable-librsvg --enable-libdc1394 --enable-libdrm --enable-libiec61883 --enable-chromaprint --enable-frei0r --enable-libx264 --enable-shared
  libavutil      56. 70.100 / 56. 70.100
  libavcodec     58.134.100 / 58.134.100
  libavformat    58. 76.100 / 58. 76.100
  libavdevice    58. 13.100 / 58. 13.100
  libavfilter     7.110.100 /  7.110.100
  libswscale      5.  9.100 /  5.  9.100
  libswresample   3.  9.100 /  3.  9.100
  libpostproc    55.  9.100 / 55.  9.100
Input #0, rawvideo, from 'pipe:':
  Duration: N/A, start: 0.000000, bitrate: 663552 kb/s
  Stream #0:0: Video: rawvideo, 1 reference frame (BGR[24] / 0x18524742), bgr24, 1280x720, 663552 kb/s, 30 tbr, 30 tbn, 30 tbc
Guessed Channel Layout for Input Stream #1.0 : mono
Input #1, alsa, from 'hw:1,0':
  Duration: N/A, start: 1754604654.765112, bitrate: 768 kb/s
  Stream #1:0: Audio: pcm_s16le, 48000 Hz, mono, s16, 768 kb/s
[tcp @ 0xaaaae5e63a60] Starting connection attempt to 2607:f8b0:4002:c10::86 port 1935
[tcp @ 0xaaaae5e63a60] Successfully connected to 2607:f8b0:4002:c10::86 port 1935
rtmp://a.rtmp.youtube.com/live2/STREAM_KEY: Input/output error
[AVIOContext @ 0xaaaae5e59280] Statistics: 2818048 bytes read, 0 seeks
